<svg aria-hidden="true" style="position: absolute; width: 0; height: 0; overflow: hidden;" version="1.1" xmlns="http://www.w3.org/2000/svg" xmlns:xlink="http://www.w3.org/1999/xlink">
<defs>
<symbol id="icon__settings" viewBox="0 0 32 32">
<path d="M14 4v-0.5c0-0.825-0.675-1.5-1.5-1.5h-5c-0.825 0-1.5 0.675-1.5 1.5v0.5h-6v4h6v0.5c0 0.825 0.675 1.5 1.5 1.5h5c0.825 0 1.5-0.675 1.5-1.5v-0.5h18v-4h-18zM8 8v-4h4v4h-4zM26 13.5c0-0.825-0.675-1.5-1.5-1.5h-5c-0.825 0-1.5 0.675-1.5 1.5v0.5h-18v4h18v0.5c0 0.825 0.675 1.5 1.5 1.5h5c0.825 0 1.5-0.675 1.5-1.5v-0.5h6v-4h-6v-0.5zM20 18v-4h4v4h-4zM14 23.5c0-0.825-0.675-1.5-1.5-1.5h-5c-0.825 0-1.5 0.675-1.5 1.5v0.5h-6v4h6v0.5c0 0.825 0.675 1.5 1.5 1.5h5c0.825 0 1.5-0.675 1.5-1.5v-0.5h18v-4h-18v-0.5zM8 28v-4h4v4h-4z"></path>
</symbol>
<symbol id="icon__generate" viewBox="0 0 32 32">
<path d="M27.802 5.197c-2.925-3.194-7.13-5.197-11.803-5.197-8.837 0-16 7.163-16 16h3c0-7.18 5.82-13 13-13 3.844 0 7.298 1.669 9.678 4.322l-4.678 4.678h11v-11l-4.198 4.197z"></path>
<path d="M29 16c0 7.18-5.82 13-13 13-3.844 0-7.298-1.669-9.678-4.322l4.678-4.678h-11v11l4.197-4.197c2.925 3.194 7.13 5.197 11.803 5.197 8.837 0 16-7.163 16-16h-3z"></path>
</symbol>
<symbol id="icon__close" viewBox="0 0 32 32">
<path d="M31.708 25.708c-0-0-0-0-0-0l-9.708-9.708 9.708-9.708c0-0 0-0 0-0 0.105-0.105 0.18-0.227 0.229-0.357 0.133-0.356 0.057-0.771-0.229-1.057l-4.586-4.586c-0.286-0.286-0.702-0.361-1.057-0.229-0.13 0.048-0.252 0.124-0.357 0.228 0 0-0 0-0 0l-9.708 9.708-9.708-9.708c-0-0-0-0-0-0-0.105-0.104-0.227-0.18-0.357-0.228-0.356-0.133-0.771-0.057-1.057 0.229l-4.586 4.586c-0.286 0.286-0.361 0.702-0.229 1.057 0.049 0.13 0.124 0.252 0.229 0.357 0 0 0 0 0 0l9.708 9.708-9.708 9.708c-0 0-0 0-0 0-0.104 0.105-0.18 0.227-0.229 0.357-0.133 0.355-0.057 0.771 0.229 1.057l4.586 4.586c0.286 0.286 0.702 0.361 1.057 0.229 0.13-0.049 0.252-0.124 0.357-0.229 0-0 0-0 0-0l9.708-9.708 9.708 9.708c0 0 0 0 0 0 0.105 0.105 0.227 0.18 0.357 0.229 0.356 0.133 0.771 0.057 1.057-0.229l4.586-4.586c0.286-0.286 0.362-0.702 0.229-1.057-0.049-0.13-0.124-0.252-0.229-0.357z"></path>
</symbol>
</defs>
</svg>